<svg width="109px" height="86px" viewBox="0 0 109 86" version="1.1" xmlns="http://www.w3.org/2000/svg" xmlns:xlink="http://www.w3.org/1999/xlink" role="img" aria-labelledby="logo-title logo-description">
                  <title id="logo-title">The Nobel Prize</title>
                  <desc id="logo-description">The Nobel Prize Logo</desc>
                  <g stroke="none" stroke-width="1" fill="none" fill-rule="evenodd">
                      <g transform="translate(-586.000000, -21.000000)" fill="#BB8A35">
                          <g id="The_Nobel_Prize_logotype" transform="translate(586.000000, 21.000000)">
                              <path d="M16.6528099,62.0089676 L8.30051408,62.0089676 L8.30051408,85.946038 L11.4498099,85.946038 L11.4498099,74.5243901 L16.6528099,74.5243901 C20.8286549,74.5243901 23.7381197,72.0285732 23.7381197,68.2669817 C23.7381197,64.5053901 20.8286549,62.0089676 16.6528099,62.0089676 Z M16.6528099,71.6524746 L11.4498099,71.6524746 L11.4498099,64.8814887 L16.6528099,64.8814887 C19.0141761,64.8814887 20.5549085,66.0788268 20.5549085,68.2669817 C20.5549085,70.4551366 19.0141761,71.6524746 16.6528099,71.6524746 Z M42.3589366,85.946038 L46.1586831,85.946038 L37.4302887,74.4904746 C41.1270775,74.1482915 43.6253169,71.7548268 43.6253169,68.2669817 C43.6253169,64.5053901 40.7158521,62.0089676 36.540007,62.0089676 L28.1883169,62.0089676 L28.1883169,85.946038 L31.3376127,85.946038 L31.3376127,74.5243901 L33.7674155,74.5243901 L42.3589366,85.946038 Z M31.3376127,64.8814887 L36.540007,64.8814887 C38.9019789,64.8814887 40.4421056,66.0788268 40.4421056,68.2669817 C40.4421056,70.4551366 38.9019789,71.6524746 36.540007,71.6524746 L31.3376127,71.6524746 L31.3376127,64.8814887 Z M50.539838,85.946038 L53.6891338,85.946038 L53.6891338,62.0089676 L50.539838,62.0089676 L50.539838,85.946038 Z M58.6177817,85.946038 L76.930331,85.946038 L76.930331,83.0735169 L62.5883169,83.0735169 L76.5542324,64.3339958 L76.5542324,62.0089676 L59.9532042,62.0089676 L59.9532042,64.8814887 L72.4807394,64.8814887 L58.6177817,83.4496155 L58.6177817,85.946038 Z M85.0082746,83.0735169 L85.0082746,74.5243901 L95.1066127,74.5243901 L95.1066127,71.6524746 L85.0082746,71.6524746 L85.0082746,64.8814887 L95.8594155,64.8814887 L95.8594155,62.0089676 L81.8595845,62.0089676 L81.8595845,85.946038 L96.0302042,85.946038 L96.0302042,83.0735169 L85.0082746,83.0735169 Z" id="Prize"></path>
                              <path d="M16.4987366,31.0045141 L16.4987366,49.059669 L2.46438451,31.0045141 L6.05633803e-05,31.0045141 L6.05633803e-05,54.9415845 L3.08091972,54.9415845 L3.08091972,36.4073732 L17.3884127,54.9415845 L19.5795958,54.9415845 L19.5795958,31.0045141 L16.4987366,31.0045141 Z M36.5567225,55.4545563 C43.4367225,55.4545563 49.0848634,49.8809085 49.0848634,42.9730493 C49.0848634,36.0651901 43.4367225,30.4915423 36.5567225,30.4915423 C29.6767225,30.4915423 24.0291873,36.0651901 24.0291873,42.9730493 C24.0291873,49.8809085 29.6767225,55.4545563 36.5567225,55.4545563 Z M36.5567225,52.445162 C31.4566803,52.445162 27.2463141,48.2051197 27.2463141,42.9730493 C27.2463141,37.7409789 31.4566803,33.5009366 36.5567225,33.5009366 C41.6573704,33.5009366 45.867131,37.7409789 45.867131,42.9730493 C45.867131,48.2051197 41.6573704,52.445162 36.5567225,52.445162 Z M65.069962,41.8447535 C67.0891451,40.8872465 68.2870887,39.0745845 68.2870887,36.7495563 C68.2870887,33.192669 65.5490183,31.0045141 61.1333423,31.0045141 L53.5344549,31.0045141 L53.5344549,54.9415845 L61.8861451,54.9415845 C66.3363423,54.9415845 69.3826803,52.0351479 69.3826803,47.7951056 C69.3826803,44.9219789 67.7056803,42.8016549 65.069962,41.8447535 Z M61.0649056,33.8085986 C63.3923563,33.8085986 65.1383986,34.8684577 65.1383986,37.0911338 C65.1383986,39.3138099 63.2900042,40.6819366 61.0649056,40.6819366 L56.6837507,40.6819366 L56.6837507,33.8085986 L61.0649056,33.8085986 Z M61.7153563,52.1381056 L56.6837507,52.1381056 L56.6837507,43.4860211 L61.7153563,43.4860211 C64.1457648,43.4860211 66.2333845,45.1272887 66.2333845,47.8290211 C66.2333845,50.5301479 64.1457648,52.1381056 61.7153563,52.1381056 Z M77.4945394,52.0690634 L77.4945394,43.5199366 L87.5922718,43.5199366 L87.5922718,40.6474155 L77.4945394,40.6474155 L77.4945394,33.8770352 L88.3456803,33.8770352 L88.3456803,31.0045141 L74.3458493,31.0045141 L74.3458493,54.9415845 L88.516469,54.9415845 L88.516469,52.0690634 L77.4945394,52.0690634 Z M97.4846944,52.0690634 L97.4846944,31.0045141 L94.3353986,31.0045141 L94.3353986,54.9415845 L108.335835,54.9415845 L108.335835,52.0690634 L97.4846944,52.0690634 Z" id="Nobel"></path>
                              <path d="M66.8837141,0.000121126761 L66.8837141,23.9371915 L81.0549394,23.9371915 L81.0549394,21.0646704 L70.0330099,21.0646704 L70.0330099,12.5161493 L80.1307423,12.5161493 L80.1307423,9.64302254 L70.0330099,9.64302254 L70.0330099,2.87264225 L80.8841507,2.87264225 L80.8841507,0.000121126761 L66.8837141,0.000121126761 Z M58.2582775,0.000121126761 L58.2582775,9.64302254 L45.0457704,9.64302254 L45.0457704,0.000121126761 L41.8964746,0.000121126761 L41.8964746,23.9371915 L45.0457704,23.9371915 L45.0457704,12.5161493 L58.2582775,12.5161493 L58.2582775,23.9371915 L61.4075732,23.9371915 L61.4075732,0.000121126761 L58.2582775,0.000121126761 Z M21.2219535,0.000121126761 L21.2219535,2.87264225 L27.9311648,2.87264225 L27.9311648,23.9371915 L31.0804606,23.9371915 L31.0804606,2.87264225 L37.7890662,2.87264225 L37.7890662,0.000121126761 L21.2219535,0.000121126761 Z" id="The"></path>
                          </g>
                      </g>
                  </g>
              </svg>
